{"accessors":[{"bufferView":0,"byteOffset":0,"componentType":5126,"count":4,"max":[-0.04178833127102469,0.014000000000000002,0.02077611950197837],"min":[-0.04178833127102469,0.0,-0.024789688042133277],"type":"VEC3"},{"bufferView":0,"byteOffset":48,"componentType":5126,"count":4,"max":[0.04981546835133444,0.014000000000000002,0.02077611950197837],"min":[-0.04178833127102469,0.0,0.02077611950197837],"type":"VEC3"},{"bufferView":0,"byteOffset":96,"componentType":5126,"count":4,"max":[0.04981546835133444,0.014000000000000002,0.02077611950197837],"min":[0.04981546835133444,0.0,-0.024789688042133277],"type":"VEC3"},{"bufferView":0,"byteOffset":144,"componentType":5126,"count":4,"max":[0.04981546835133444,0.014000000000000002,-0.024789688042133277],"min":[-0.04178833127102469,0.0,-0.024789688042133277],"type":"VEC3"},{"bufferView":0,"byteOffset":192,"componentType":5126,"count":4,"max":[0.04981546835133444,0.014000000000000002,0.02077611950197837],"min":[-0.04178833127102469,0.014000000000000002,-0.024789688042133277],"type":"VEC3"},{"bufferView":0,"byteOffset":240,"componentType":5126,"count":4,"max":[0.04981546835133444,0.0,0.02077611950197837],"min":[-0.04178833127102469,0.0,-0.024789688042133277],"type":"VEC3"},{"bufferView":1,"byteOffset":0,"componentType":5126,"count":4,"type":"VEC3"},{"bufferView":1,"byteOffset":48,"componentType":5126,"count":4,"type":"VEC3"},{"bufferView":1,"byteOffset":96,"componentType":5126,"count":4,"type":"VEC3"},{"bufferView":1,"byteOffset":144,"componentType":5126,"count":4,"type":"VEC3"},{"bufferView":1,"byteOffset":192,"componentType":5126,"count":4,"type":"VEC3"},{"bufferView":1,"byteOffset":240,"componentType":5126,"count":4,"type":"VEC3"},{"bufferView":2,"byteOffset":0,"componentType":5123,"count":6,"type":"SCALAR"},{"bufferView":2,"byteOffset":12,"componentType":5123,"count":6,"type":"SCALAR"},{"bufferView":2,"byteOffset":24,"componentType":5123,"count":6,"type":"SCALAR"},{"bufferView":2,"byteOffset":36,"componentType":5123,"count":6,"type":"SCALAR"},{"bufferView":2,"byteOffset":48,"componentType":5123,"count":6,"type":"SCALAR"},{"bufferView":2,"byteOffset":60,"componentType":5123,"count":6,"type":"SCALAR"}],"asset":{"generator":"Open CASCADE Technology 7.6 [dev.opencascade.org]","version":"2.0"},"bufferViews":[{"buffer":0,"byteLength":288,"byteOffset":0,"byteStride":12,"target":34962},{"buffer":0,"byteLength":288,"byteOffset":288,"byteStride":12,"target":34962},{"buffer":0,"byteLength":72,"byteOffset":576,"target":34963}],"buffers":[{"byteLength":648,"uri":"01.bin"}],"meshes":[{"name":"ýýý1","primitives":[{"attributes":{"NORMAL":6,"POSITION":0},"indices":12,"mode":4},{"attributes":{"NORMAL":7,"POSITION":1},"indices":13,"mode":4},{"attributes":{"NORMAL":8,"POSITION":2},"indices":14,"mode":4},{"attributes":{"NORMAL":9,"POSITION":3},"indices":15,"mode":4},{"attributes":{"NORMAL":10,"POSITION":4},"indices":16,"mode":4},{"attributes":{"NORMAL":11,"POSITION":5},"indices":17,"mode":4}]}],"nodes":[{"mesh":0,"name":"ýýý1"}],"scene":0,"scenes":[{"nodes":[0]}]}